<svg id="visual" viewBox="0 0 900 675" width="900" height="675" xmlns="http://www.w3.org/2000/svg" xmlns:xlink="http://www.w3.org/1999/xlink" version="1.1"><path d="M0 129L13.7 119C27.3 109 54.7 89 82 75.5C109.3 62 136.7 55 163.8 58.3C191 61.7 218 75.3 245.2 83.3C272.3 91.3 299.7 93.7 327 99.3C354.3 105 381.7 114 409 106C436.3 98 463.7 73 491 74C518.3 75 545.7 102 573 106.5C600.3 111 627.7 93 654.8 88.5C682 84 709 93 736.2 95.3C763.3 97.7 790.7 93.3 818 86.7C845.3 80 872.7 71 886.3 66.5L900 62L900 0L886.3 0C872.7 0 845.3 0 818 0C790.7 0 763.3 0 736.2 0C709 0 682 0 654.8 0C627.7 0 600.3 0 573 0C545.7 0 518.3 0 491 0C463.7 0 436.3 0 409 0C381.7 0 354.3 0 327 0C299.7 0 272.3 0 245.2 0C218 0 191 0 163.8 0C136.7 0 109.3 0 82 0C54.7 0 27.3 0 13.7 0L0 0Z" fill="#b3c1f0"></path><path d="M0 258L13.7 279.3C27.3 300.7 54.7 343.3 82 335.3C109.3 327.3 136.7 268.7 163.8 238.3C191 208 218 206 245.2 202.7C272.3 199.3 299.7 194.7 327 231.7C354.3 268.7 381.7 347.3 409 362C436.3 376.7 463.7 327.3 491 327.3C518.3 327.3 545.7 376.7 573 374.3C600.3 372 627.7 318 654.8 285.5C682 253 709 242 736.2 247.7C763.3 253.3 790.7 275.7 818 272.2C845.3 268.7 872.7 239.3 886.3 224.7L900 210L900 60L886.3 64.5C872.7 69 845.3 78 818 84.7C790.7 91.3 763.3 95.7 736.2 93.3C709 91 682 82 654.8 86.5C627.7 91 600.3 109 573 104.5C545.7 100 518.3 73 491 72C463.7 71 436.3 96 409 104C381.7 112 354.3 103 327 97.3C299.7 91.7 272.3 89.3 245.2 81.3C218 73.3 191 59.7 163.8 56.3C136.7 53 109.3 60 82 73.5C54.7 87 27.3 107 13.7 117L0 127Z" fill="#a0b4ed"></path><path d="M0 379L13.7 390.3C27.3 401.7 54.7 424.3 82 416.5C109.3 408.7 136.7 370.3 163.8 346.7C191 323 218 314 245.2 312.8C272.3 311.7 299.7 318.3 327 351C354.3 383.7 381.7 442.3 409 468.2C436.3 494 463.7 487 491 492.5C518.3 498 545.7 516 573 497C600.3 478 627.7 422 654.8 388.3C682 354.7 709 343.3 736.2 353.3C763.3 363.3 790.7 394.7 818 402.5C845.3 410.3 872.7 394.7 886.3 386.8L900 379L900 208L886.3 222.7C872.7 237.3 845.3 266.7 818 270.2C790.7 273.7 763.3 251.3 736.2 245.7C709 240 682 251 654.8 283.5C627.7 316 600.3 370 573 372.3C545.7 374.7 518.3 325.3 491 325.3C463.7 325.3 436.3 374.7 409 360C381.7 345.3 354.3 266.7 327 229.7C299.7 192.7 272.3 197.3 245.2 200.7C218 204 191 206 163.8 236.3C136.7 266.7 109.3 325.3 82 333.3C54.7 341.3 27.3 298.7 13.7 277.3L0 256Z" fill="#8ca7e9"></path><path d="M0 440L13.7 456.8C27.3 473.7 54.7 507.3 82 505C109.3 502.7 136.7 464.3 163.8 438.5C191 412.7 218 399.3 245.2 399.3C272.3 399.3 299.7 412.7 327 438.5C354.3 464.3 381.7 502.7 409 518.5C436.3 534.3 463.7 527.7 491 534.5C518.3 541.3 545.7 561.7 573 553.7C600.3 545.7 627.7 509.3 654.8 486.8C682 464.3 709 455.7 736.2 454.7C763.3 453.7 790.7 460.3 818 460.3C845.3 460.3 872.7 453.7 886.3 450.3L900 447L900 377L886.3 384.8C872.7 392.7 845.3 408.3 818 400.5C790.7 392.7 763.3 361.3 736.2 351.3C709 341.3 682 352.7 654.8 386.3C627.7 420 600.3 476 573 495C545.7 514 518.3 496 491 490.5C463.7 485 436.3 492 409 466.2C381.7 440.3 354.3 381.7 327 349C299.7 316.3 272.3 309.7 245.2 310.8C218 312 191 321 163.8 344.7C136.7 368.3 109.3 406.7 82 414.5C54.7 422.3 27.3 399.7 13.7 388.3L0 377Z" fill="#7a95dd"></path><path d="M0 676L13.7 676C27.3 676 54.7 676 82 676C109.3 676 136.7 676 163.8 676C191 676 218 676 245.2 676C272.3 676 299.7 676 327 676C354.3 676 381.7 676 409 676C436.3 676 463.7 676 491 676C518.3 676 545.7 676 573 676C600.3 676 627.7 676 654.8 676C682 676 709 676 736.2 676C763.3 676 790.7 676 818 676C845.3 676 872.7 676 886.3 676L900 676L900 445L886.3 448.3C872.7 451.7 845.3 458.3 818 458.3C790.7 458.3 763.3 451.7 736.2 452.7C709 453.7 682 462.3 654.8 484.8C627.7 507.3 600.3 543.7 573 551.7C545.7 559.7 518.3 539.3 491 532.5C463.7 525.7 436.3 532.3 409 516.5C381.7 500.7 354.3 462.3 327 436.5C299.7 410.7 272.3 397.3 245.2 397.3C218 397.3 191 410.7 163.8 436.5C136.7 462.3 109.3 500.7 82 503C54.7 505.3 27.3 471.7 13.7 454.8L0 438Z" fill="#6984d0"></path></svg>